<svg width="25" height="25" viewBox="0 0 25 25" fill="none" xmlns="http://www.w3.org/2000/svg">
<path d="M22.95 12.6C22.95 15.91 20.26 18.6 16.95 18.6C15.41 18.6 14.01 18.02 12.95 17.06C14.18 15.97 14.95 14.37 14.95 12.6C14.95 10.83 14.18 9.22998 12.95 8.13998C14.01 7.17998 15.41 6.59998 16.95 6.59998C20.26 6.59998 22.95 9.28998 22.95 12.6Z" stroke="#707E85" stroke-width="1.5" stroke-linecap="round" stroke-linejoin="round"/>
<path d="M14.95 12.6C14.95 14.37 14.18 15.97 12.95 17.06C11.89 18.02 10.49 18.6 8.94995 18.6C5.63995 18.6 2.94995 15.91 2.94995 12.6C2.94995 9.28998 5.63995 6.59998 8.94995 6.59998C10.49 6.59998 11.89 7.17998 12.95 8.13998C14.18 9.22998 14.95 10.83 14.95 12.6Z" stroke="#707E85" stroke-width="1.5" stroke-linecap="round" stroke-linejoin="round"/>
</svg>
