<svg width="24" height="26" viewBox="0 0 24 26" fill="none" xmlns="http://www.w3.org/2000/svg">
<g clip-path="url(#clip0_1_657)">
<path fill-rule="evenodd" clip-rule="evenodd" d="M11.9843 0.600112C18.6353 0.600112 24 5.96482 24 12.6472C24 19.2354 18.5725 24.6629 11.8902 24.6315C5.42745 24.5688 0 19.2354 0 12.6158C0 5.96482 5.33333 0.568739 11.9843 0.600112ZM2.8549 18.8903C2.8549 19.0158 2.91765 19.0786 2.98039 19.1727C3.45098 19.8315 3.98431 20.459 4.61176 20.9923C4.89412 21.2433 5.17647 21.4943 5.4902 21.7139C6.36863 22.2786 7.27843 22.8119 8.28235 23.157C9.09804 23.4394 9.9451 23.659 10.7922 23.7531C11.451 23.8158 12.1412 23.8472 12.8 23.7531C13.1765 23.6903 13.5843 23.6903 13.9608 23.5335C14.0235 23.5648 14.0549 23.5021 14.0863 23.5021C14.8706 23.3766 15.6235 23.1256 16.3765 22.8119C18.8235 21.7452 20.6745 20.0197 21.8667 17.6354C22.9333 15.5335 23.2784 13.306 22.9333 10.9844C22.6196 8.75698 21.6784 6.81188 20.1726 5.18051C18.1647 2.89031 15.5922 1.69816 12.549 1.50992C11.2 1.4158 9.85098 1.60404 8.56471 2.04325C6.46275 2.73345 4.73726 3.92561 3.32549 5.6511C1.72549 7.62757 0.941176 9.88638 0.847058 12.3962C0.815686 13.0237 0.878431 13.6197 0.972549 14.2472C1.16078 15.659 1.63137 17.008 2.35294 18.2315C2.54118 18.4197 2.66667 18.6707 2.8549 18.8903Z" fill="#85939A"/>
<path fill-rule="evenodd" clip-rule="evenodd" d="M13.9609 23.5023C13.5844 23.6905 13.1765 23.6905 12.8001 23.7219C12.1413 23.816 11.4511 23.7846 10.7922 23.7219C9.94518 23.6278 9.09812 23.4081 8.28243 23.1258C7.27851 22.7807 6.36871 22.2474 5.49027 21.6827C5.17655 21.4631 4.8942 21.2121 4.61184 20.9611C3.98439 20.4278 3.45106 19.8003 2.98047 19.1415C2.91772 19.0474 2.85498 18.9533 2.85498 18.8591C3.60792 17.165 3.89027 15.3768 4.04714 13.5572C4.10988 12.7101 4.14125 11.8631 4.29812 11.016C4.45498 10.0434 4.83145 9.16499 5.52165 8.41205C6.1491 7.75323 6.93341 7.31401 7.78047 7.00029C8.47067 6.71793 9.19224 6.46695 9.97655 6.43558C10.6981 6.40421 11.3883 6.49833 12.0785 6.65519C13.1138 6.90617 14.1491 7.21989 15.1216 7.69048C15.906 8.00421 16.7216 8.31793 17.5373 8.56892C18.3844 8.8199 19.2315 9.10225 19.953 9.63558C20.8628 10.3258 21.1138 11.2042 20.706 12.2709C20.455 12.9297 19.9844 13.4317 19.5138 13.9336C18.6667 14.8121 17.7569 15.6278 16.9413 16.5376C16.0001 17.6356 15.153 18.765 14.5569 20.0827C14.055 21.1807 13.7726 22.3101 13.9609 23.5023ZM20.0158 13.1807C19.9844 13.1807 19.953 13.1807 19.9216 13.2121C19.8903 13.2121 19.8589 13.2434 19.8589 13.2748C19.8589 13.2748 19.8589 13.2748 19.8589 13.3062C19.8903 13.3062 19.9216 13.2748 19.9216 13.2434L20.0158 13.1807C20.0785 13.1807 20.0471 13.1807 20.0158 13.1807ZM10.4158 7.72186C9.22361 7.72186 8.25106 8.6944 8.25106 9.85519C8.25106 11.0474 9.22361 11.9885 10.3844 12.0199C11.5765 12.0199 12.5177 11.0474 12.5491 9.85519C12.5491 8.66303 11.6079 7.72186 10.4158 7.72186ZM12.1726 14.3101C12.3609 14.5925 12.706 14.8434 13.1138 14.9689C13.9295 15.2513 14.7452 15.2513 15.5609 15.0944C17.004 14.8121 18.353 14.3101 19.5765 13.4944C19.6393 13.4317 19.7648 13.4317 19.7962 13.3062C19.7334 13.2748 19.702 13.3062 19.6707 13.3376C19.2628 13.5885 18.8236 13.7768 18.3844 13.965C17.255 14.4356 16.0628 14.7493 14.8079 14.8121C13.8981 14.8748 12.9883 14.8121 12.1726 14.3101ZM18.102 12.4591C18.353 12.4591 18.5726 12.2395 18.5726 11.9572C18.5726 11.7062 18.353 11.4866 18.0707 11.518C17.8197 11.518 17.6315 11.7376 17.6315 11.9885C17.6315 12.2709 17.8197 12.4591 18.102 12.4591Z" fill="#85939A"/>
<path fill-rule="evenodd" clip-rule="evenodd" d="M12.0472 6.6551C11.357 6.52961 10.6668 6.40412 9.94519 6.43549C9.16088 6.46686 8.47068 6.71784 7.74911 7.0002C6.90205 7.31392 6.11774 7.75314 5.49029 8.41196C4.80009 9.13353 4.42362 10.012 4.26676 11.0159C4.14127 11.863 4.1099 12.71 4.01578 13.5571C3.85892 15.3767 3.57656 17.1963 2.82362 18.859C2.60401 18.6708 2.47852 18.3885 2.35303 18.1688C1.63146 16.9453 1.16088 15.5963 0.972641 14.1845C0.878523 13.5571 0.815778 12.961 0.84715 12.3336C0.941268 9.82372 1.72558 7.5649 3.32558 5.58843C4.70597 3.86294 6.46284 2.67078 8.5648 1.98059C9.85107 1.57274 11.2001 1.38451 12.5491 1.44725C15.5609 1.63549 18.1334 2.85902 20.1726 5.08647C21.6785 6.74922 22.5883 8.69431 22.9334 10.8904C23.2785 13.212 22.9334 15.4394 21.8668 17.5414C20.6746 19.9257 18.8236 21.6512 16.3766 22.7179C15.655 23.0316 14.9021 23.2826 14.0864 23.4081C14.0236 23.4081 13.9922 23.5022 13.9609 23.4394C13.7726 22.2473 14.055 21.1179 14.5256 20.0198C15.1217 18.7022 15.9687 17.5728 16.9099 16.4747C17.6942 15.5649 18.604 14.7179 19.4824 13.8708C19.9844 13.3688 20.4236 12.8669 20.6746 12.2081C21.1138 11.1414 20.8628 10.2629 19.9217 9.57274C19.2001 9.03941 18.353 8.75706 17.506 8.50608C16.6903 8.2551 15.8746 7.94137 15.0903 7.62765C14.9334 7.09431 14.557 6.74922 14.055 6.56098C13.3962 6.40412 12.7373 6.46686 12.0472 6.6551ZM22.306 13.3375H22.3687C22.4942 12.8983 22.4942 12.4277 22.4942 11.9571C22.4942 11.4237 22.4315 10.8904 22.3373 10.3571C21.9923 8.63157 21.2079 7.12569 19.9844 5.83941C19.2315 5.0551 18.3844 4.39627 17.5373 3.70608C16.7844 3.07863 15.9687 2.60804 15.0275 2.35706C14.1177 2.13745 13.2393 2.01196 12.2981 2.16882C12.2354 2.16882 12.1726 2.16882 12.1726 2.23157C12.1726 2.29431 12.2354 2.29431 12.2981 2.29431C13.6785 2.54529 14.9962 2.98451 16.2824 3.48647C17.5373 3.98843 18.604 4.71 19.3883 5.83941C19.9217 6.62373 20.4236 7.43941 20.8315 8.31784C21.3648 9.51 21.7726 10.7335 22.0236 11.9885C22.1491 12.4904 22.2432 12.8983 22.306 13.3375Z" fill="white"/>
<path fill-rule="evenodd" clip-rule="evenodd" d="M10.4158 7.7218C11.608 7.7218 12.5491 8.69434 12.5491 9.85513C12.5491 11.0473 11.5766 11.9885 10.3844 12.0199C9.19227 12.0199 8.2511 11.0473 8.2511 9.85513C8.2511 8.66297 9.22365 7.7218 10.4158 7.7218ZM11.9217 9.8865C11.9217 9.03944 11.2629 8.38062 10.4158 8.38062C9.56875 8.38062 8.90992 9.03944 8.90992 9.8865C8.90992 10.7022 9.56874 11.3924 10.3844 11.3924H10.4158C11.2315 11.3924 11.8903 10.7336 11.9217 9.8865Z" fill="#FCFDFB"/>
<path fill-rule="evenodd" clip-rule="evenodd" d="M12.1726 14.3101C12.9883 14.8121 13.8981 14.8748 14.8079 14.8434C16.0628 14.7807 17.255 14.4983 18.3844 13.9964C18.8236 13.8081 19.2628 13.6199 19.6707 13.3689C19.702 13.3375 19.7334 13.3062 19.7961 13.3375C19.7648 13.4317 19.6706 13.463 19.5765 13.5258C18.353 14.3415 17.004 14.8434 15.5608 15.1258C14.7452 15.2826 13.8981 15.2826 13.1138 15.0003C12.7059 14.8434 12.3295 14.5924 12.1726 14.3101ZM12.0471 6.65516C12.7059 6.46692 13.3961 6.40418 14.055 6.65516C14.5569 6.84339 14.9334 7.18849 15.0903 7.72182C14.1491 7.21986 13.1138 6.90614 12.0471 6.65516Z" fill="#85939A"/>
<path fill-rule="evenodd" clip-rule="evenodd" d="M18.1021 12.459C17.8511 12.459 17.6315 12.2394 17.6315 11.9885C17.6315 11.7375 17.8197 11.5179 18.0707 11.5179C18.3217 11.5179 18.5413 11.7061 18.5726 11.9571C18.5413 12.2394 18.353 12.459 18.1021 12.459Z" fill="#FCFDFB"/>
<path fill-rule="evenodd" clip-rule="evenodd" d="M19.9217 13.2432C19.9217 13.2746 19.8903 13.306 19.8589 13.306C19.8589 13.2432 19.8903 13.2118 19.9217 13.2432ZM20.0158 13.1805L19.9217 13.2432L19.8903 13.2118C19.9531 13.1805 19.9844 13.1805 20.0158 13.1805Z" fill="#85939A"/>
<path fill-rule="evenodd" clip-rule="evenodd" d="M22.306 13.3375C22.2119 12.8983 22.1178 12.4904 22.055 12.0512C21.804 10.765 21.3648 9.5414 20.8629 8.38062C20.4864 7.50219 19.9844 6.6865 19.4197 5.90219C18.6354 4.77278 17.6001 4.05121 16.3138 3.54925C14.9962 3.04729 13.7099 2.5767 12.3295 2.35709C12.2668 2.35709 12.204 2.35709 12.204 2.29434C12.204 2.2316 12.2668 2.2316 12.3295 2.2316C13.2393 2.07474 14.1491 2.16885 15.0589 2.41984C16.0001 2.67082 16.8158 3.17277 17.5687 3.76885C18.4158 4.45905 19.2629 5.11787 20.0158 5.90219C21.2393 7.18846 22.0236 8.69434 22.3687 10.4198C22.4629 10.9532 22.5256 11.4865 22.5256 12.0199C22.5256 12.4591 22.5256 12.9297 22.4001 13.4002L22.306 13.3375Z" fill="#FFFEFC"/>
<path fill-rule="evenodd" clip-rule="evenodd" d="M11.9217 9.88626C11.9217 10.702 11.2629 11.3922 10.4472 11.3922H10.4158C9.60011 11.3922 8.90991 10.7333 8.90991 9.88626V9.85488C8.90991 9.00783 9.60011 8.349 10.4158 8.349C11.2315 8.349 11.9217 9.0392 11.9217 9.88626Z" fill="#85939A"/>
</g>
<defs>
<clipPath id="clip0_1_657">
<rect width="24" height="25" fill="white" transform="translate(0 0.599976)"/>
</clipPath>
</defs>
</svg>
