<svg width="19" height="19" viewBox="0 0 19 19" fill="none" xmlns="http://www.w3.org/2000/svg">
<path d="M13.24 5.59998V3.59998C13.24 3.06955 13.0293 2.56084 12.6542 2.18577C12.2791 1.81069 11.7704 1.59998 11.24 1.59998H3.23999C2.70956 1.59998 2.20085 1.81069 1.82578 2.18577C1.4507 2.56084 1.23999 3.06955 1.23999 3.59998V11.6C1.23999 12.1304 1.4507 12.6391 1.82578 13.0142C2.20085 13.3893 2.70956 13.6 3.23999 13.6H5.23999M7.23999 5.59998H15.24C16.3446 5.59998 17.24 6.49541 17.24 7.59998V15.6C17.24 16.7046 16.3446 17.6 15.24 17.6H7.23999C6.13542 17.6 5.23999 16.7046 5.23999 15.6V7.59998C5.23999 6.49541 6.13542 5.59998 7.23999 5.59998Z" stroke="#707E85" stroke-width="2" stroke-linecap="round" stroke-linejoin="round"/>
</svg>
