<svg width="23" height="18" viewBox="0 0 23 18" fill="none" xmlns="http://www.w3.org/2000/svg">
<g clip-path="url(#clip0_1_620)">
<path fill-rule="evenodd" clip-rule="evenodd" d="M15.6747 16.1583C16.2654 16.9171 16.9743 17.7973 16.9743 17.7973C18.1465 17.8278 19.3082 17.5637 20.3585 17.0275C21.4086 16.4915 22.3154 15.6999 23 14.7216C22.9361 10.6195 21.9665 6.58575 20.1644 2.92471C18.5785 1.64482 16.6451 0.902403 14.631 0.800049L14.3553 1.12378C16.1476 1.61108 17.8187 2.48349 19.2586 3.68356C17.425 2.64497 15.4115 1.98507 13.3313 1.741C12.0107 1.60205 10.6786 1.62583 9.36341 1.81178C9.25096 1.81525 9.13888 1.82884 9.02869 1.85223C7.4832 2.02969 5.97468 2.45647 4.55862 3.11691C3.83005 3.45083 3.39685 3.70379 3.39685 3.70379C4.90988 2.44142 6.67463 1.53644 8.56596 1.053L8.369 0.800049C6.35493 0.902403 4.42153 1.64482 2.83564 2.92471C1.03348 6.58575 0.0639256 10.6195 0 14.7216C0.679069 15.7008 1.58207 16.4936 2.62936 17.0299C3.67666 17.5662 4.83626 17.8298 6.006 17.7973C6.006 17.7973 6.23654 17.506 6.5434 17.1161C6.78205 16.8128 7.0669 16.4498 7.32538 16.1178C5.94095 15.7591 4.72201 14.9144 3.87926 13.7301C4.58274 14.2114 5.3355 14.6118 6.12416 14.924C7.06126 15.304 8.03014 15.5953 9.01884 15.7941C10.7028 16.1268 12.4325 16.1337 14.119 15.8143C15.1002 15.638 16.0583 15.346 16.9743 14.9442C17.7706 14.6354 18.5303 14.2349 19.2389 13.7503C18.3646 14.9601 17.1021 15.813 15.6747 16.1583ZM6.38437 9.06688C6.75734 8.65082 7.26897 8.39409 7.81763 8.3477C8.09369 8.35773 8.36502 8.42404 8.61584 8.54268C8.86673 8.6614 9.09216 8.83013 9.27898 9.03909C9.46587 9.24812 9.61048 9.49312 9.70445 9.76004C9.79835 10.0269 9.83974 10.3102 9.82622 10.5938C9.83808 10.8768 9.79557 11.1594 9.70099 11.4256C9.60649 11.6918 9.46174 11.9361 9.27522 12.1447C9.08863 12.3533 8.86388 12.5221 8.61381 12.6414C8.36366 12.7607 8.09316 12.8281 7.81763 12.8398C7.26897 12.7934 6.75734 12.5367 6.38437 12.1205C6.01134 11.7044 5.80431 11.1594 5.80431 10.5938C5.80431 10.028 6.01134 9.48301 6.38437 9.06688ZM13.7398 8.6323C14.1241 8.40868 14.5651 8.30949 15.0052 8.3477C15.2806 8.35935 15.5512 8.42682 15.8013 8.54607C16.0514 8.66533 16.2762 8.83407 16.4627 9.04272C16.6493 9.25136 16.794 9.49567 16.8885 9.76182C16.983 10.028 17.0256 10.3107 17.0138 10.5938C17.0137 11.0475 16.8803 11.4907 16.631 11.8654C16.3817 12.24 16.0282 12.5285 15.6167 12.6932C15.2052 12.8579 14.7549 12.8912 14.3247 12.7886C13.8945 12.686 13.5045 12.4523 13.2056 12.1181C12.9068 11.784 12.7132 11.3649 12.65 10.9158C12.5867 10.4667 12.657 10.0084 12.8515 9.60103C13.0459 9.19354 13.3555 8.85592 13.7398 8.6323Z" fill="#ABB7BD"/>
</g>
<defs>
<clipPath id="clip0_1_620">
<rect width="23" height="17" fill="white" transform="translate(0 0.800049)"/>
</clipPath>
</defs>
</svg>
