<svg width="21" height="21" viewBox="0 0 21 21" fill="none" xmlns="http://www.w3.org/2000/svg">
<g clip-path="url(#clip0_1_629)">
<path d="M10.2528 0.300049C4.59155 0.300049 0 4.89074 0 10.5528C0 15.0828 2.93743 18.9259 7.01206 20.2819C7.52385 20.3767 7.6896 20.0589 7.6896 19.7889V17.8801C4.83761 18.5004 4.24381 16.6703 4.24381 16.6703C3.7773 15.4853 3.10489 15.17 3.10489 15.17C2.17445 14.5335 3.17581 14.5471 3.17581 14.5471C4.20536 14.6189 4.74705 15.604 4.74705 15.604C5.66126 17.171 7.14535 16.7182 7.73061 16.4559C7.82204 15.7937 8.08775 15.3409 8.38167 15.0854C6.10469 14.8248 3.71066 13.9456 3.71066 10.018C3.71066 8.89788 4.11137 7.98367 4.7667 7.26598C4.66075 7.00709 4.3096 5.96387 4.86666 4.5524C4.86666 4.5524 5.7279 4.27728 7.68704 5.60331C8.5047 5.37604 9.38132 5.26241 10.2528 5.25813C11.1243 5.26241 12.0018 5.37604 12.8211 5.60331C14.7786 4.27728 15.6381 4.5524 15.6381 4.5524C16.196 5.96472 15.8449 7.00795 15.7389 7.26598C16.3968 7.98367 16.7941 8.89873 16.7941 10.018C16.7941 13.9559 14.3958 14.8231 12.1128 15.0769C12.4802 15.3947 12.816 16.0184 12.816 16.9753V19.7889C12.816 20.0614 12.98 20.3818 13.5004 20.281C17.5716 18.9235 20.5056 15.0811 20.5056 10.5528C20.5056 4.89074 15.9149 0.300049 10.2528 0.300049Z" fill="#ABB7BD"/>
</g>
<defs>
<clipPath id="clip0_1_629">
<rect width="21" height="20" fill="white" transform="translate(0 0.300049)"/>
</clipPath>
</defs>
</svg>
