<svg width="28" height="17" viewBox="0 0 28 17" fill="none" xmlns="http://www.w3.org/2000/svg">
<g clip-path="url(#clip0_1_632)">
<path d="M15.2553 7.98018C15.2553 12.2216 11.8402 15.66 7.62778 15.66C3.41532 15.66 0 12.2208 0 7.98018C0 3.73947 3.41506 0.300049 7.62778 0.300049C11.8405 0.300049 15.2553 3.73869 15.2553 7.98018Z" fill="#ABB7BD"/>
<path d="M23.6227 7.98013C23.6227 11.9725 21.9151 15.2103 19.8088 15.2103C17.7024 15.2103 15.9949 11.9725 15.9949 7.98013C15.9949 3.98768 17.7021 0.749878 19.8085 0.749878C21.9149 0.749878 23.6227 3.98665 23.6227 7.98013Z" fill="#ABB7BD"/>
<path d="M27.0457 7.98021C27.0457 11.5565 26.4453 14.4574 25.7044 14.4574C24.9635 14.4574 24.3633 11.5573 24.3633 7.98021C24.3633 4.40319 24.9637 1.50305 25.7044 1.50305C26.445 1.50305 27.0457 4.40293 27.0457 7.98021Z" fill="#ABB7BD"/>
</g>
<defs>
<clipPath id="clip0_1_632">
<rect width="28" height="16" fill="white" transform="translate(0 0.300049)"/>
</clipPath>
</defs>
</svg>
