<svg width="25" height="25" viewBox="0 0 25 25" fill="none" xmlns="http://www.w3.org/2000/svg">
<g clip-path="url(#clip0_1_674)">
<path d="M0.130005 12.6C0.130005 5.97256 5.50258 0.599976 12.13 0.599976C18.7575 0.599976 24.13 5.97256 24.13 12.6C24.13 19.2274 18.7575 24.6 12.13 24.6C5.50258 24.6 0.130005 19.2274 0.130005 12.6Z" fill="url(#paint0_linear_1_674)"/>
<path fill-rule="evenodd" clip-rule="evenodd" d="M15.2908 13.5825C12.9989 13.5825 11.1415 11.7256 11.1415 9.43676C11.1415 8.23841 10.1748 7.26672 8.96909 7.26672C7.77419 7.26672 6.79663 8.23841 6.79663 9.43676C6.79663 10.6352 7.76331 11.6068 8.96909 11.6068H8.97989C11.2609 11.6068 13.1076 13.4637 13.1184 15.7526V15.7634C13.1184 16.9617 14.0851 17.9334 15.2908 17.9334C16.4966 17.9334 17.4633 16.9617 17.4633 15.7634C17.4524 14.5542 16.4857 13.5825 15.2908 13.5825Z" fill="url(#paint1_linear_1_674)"/>
<path fill-rule="evenodd" clip-rule="evenodd" d="M8.97996 13.5825C7.78506 13.5825 6.8075 14.5541 6.8075 15.7525C6.8075 16.9509 7.77418 17.9225 8.97996 17.9225C10.1857 17.9225 11.1524 16.9509 11.1524 15.7525C11.1415 14.5541 10.1748 13.5825 8.97996 13.5825Z" fill="url(#paint2_linear_1_674)"/>
<path fill-rule="evenodd" clip-rule="evenodd" d="M15.2909 7.26672C16.4907 7.26672 17.4633 8.23826 17.4633 9.43676C17.4633 10.6353 16.4907 11.6068 15.2909 11.6068C14.0911 11.6068 13.1184 10.6353 13.1184 9.43676C13.1184 8.23826 14.0911 7.26672 15.2909 7.26672Z" fill="url(#paint3_linear_1_674)"/>
</g>
<defs>
<linearGradient id="paint0_linear_1_674" x1="12.13" y1="0.599976" x2="12.13" y2="24.6" gradientUnits="userSpaceOnUse">
<stop stop-color="#2E2E2E"/>
<stop offset="1" stop-color="#020303"/>
</linearGradient>
<linearGradient id="paint1_linear_1_674" x1="12.13" y1="7.26672" x2="12.13" y2="17.9334" gradientUnits="userSpaceOnUse">
<stop stop-color="#46D5CF"/>
<stop offset="1" stop-color="#45D6D0"/>
</linearGradient>
<linearGradient id="paint2_linear_1_674" x1="8.97996" y1="13.5825" x2="8.97996" y2="17.9225" gradientUnits="userSpaceOnUse">
<stop stop-color="#46D5CF"/>
<stop offset="1" stop-color="#45D6D0"/>
</linearGradient>
<linearGradient id="paint3_linear_1_674" x1="15.2909" y1="7.26672" x2="15.2909" y2="11.6068" gradientUnits="userSpaceOnUse">
<stop stop-color="#46D5CF"/>
<stop offset="1" stop-color="#45D6D0"/>
</linearGradient>
<clipPath id="clip0_1_674">
<rect width="24" height="24" fill="white" transform="translate(0.130005 0.599976)"/>
</clipPath>
</defs>
</svg>
