<svg width="25" height="25" viewBox="0 0 25 25" fill="none" xmlns="http://www.w3.org/2000/svg">
<path d="M11.98 16.75V19.45C11.98 21.7 11.08 22.6 8.82998 22.6H6.12998C3.87998 22.6 2.97998 21.7 2.97998 19.45V16.75C2.97998 14.5 3.87998 13.6 6.12998 13.6H8.82998C11.08 13.6 11.98 14.5 11.98 16.75Z" stroke="#707E85" stroke-width="1.5" stroke-linecap="round" stroke-linejoin="round"/>
<path d="M22.98 15.6C22.98 19.47 19.85 22.6 15.98 22.6L17.03 20.85" stroke="#707E85" stroke-width="1.5" stroke-linecap="round" stroke-linejoin="round"/>
<path d="M2.97998 9.59998C2.97998 5.72998 6.10998 2.59998 9.97998 2.59998L8.92998 4.34998" stroke="#707E85" stroke-width="1.5" stroke-linecap="round" stroke-linejoin="round"/>
<path d="M18.48 11.6C20.9653 11.6 22.98 9.58526 22.98 7.09998C22.98 4.6147 20.9653 2.59998 18.48 2.59998C15.9947 2.59998 13.98 4.6147 13.98 7.09998C13.98 9.58526 15.9947 11.6 18.48 11.6Z" stroke="#707E85" stroke-width="1.5" stroke-linecap="round" stroke-linejoin="round"/>
</svg>
