<svg width="23" height="20" viewBox="0 0 23 20" fill="none" xmlns="http://www.w3.org/2000/svg">
<g clip-path="url(#clip0_1_626)">
<path d="M22.8573 1.23187C22.8573 1.08793 22.7146 0.943988 22.5719 0.800049C22.2864 0.800049 22.001 0.800049 21.7156 0.800049C21.7156 0.800049 1.73548 7.99702 0.593764 8.86066C0.16562 9.14853 0.16562 9.29247 0.0229048 9.29247C-0.11981 9.86823 0.45105 10.1561 0.45105 10.1561L5.58879 11.8833C5.7315 11.8833 5.7315 11.8833 5.87421 11.8833C7.01593 11.1636 17.7196 4.39853 18.2904 4.11066C18.4331 4.11066 18.4331 4.11066 18.4331 4.11066C18.1477 4.97429 9.01394 13.1788 9.01394 13.3227C9.01394 13.3227 8.87123 13.4667 9.01394 13.4667L8.5858 18.5045C8.5858 18.5045 8.44308 20.0879 10.0129 18.5045C11.1547 17.353 12.1537 16.4894 12.7245 16.0576C14.4371 17.353 16.4351 18.6485 17.2914 19.3682C17.5768 19.6561 18.005 19.8 18.2904 19.8C18.7186 19.8 19.1467 19.3682 19.2894 18.9364C19.2894 18.9364 23 4.11066 23 2.0955C23 1.95157 23 1.80763 23 1.66368C22.8573 1.51975 22.8573 1.37581 22.8573 1.23187Z" fill="#ABB7BD"/>
</g>
<defs>
<clipPath id="clip0_1_626">
<rect width="23" height="19" fill="white" transform="translate(0 0.800049)"/>
</clipPath>
</defs>
</svg>
