<svg width="19" height="18" viewBox="0 0 19 18" fill="none" xmlns="http://www.w3.org/2000/svg">
<path d="M9.50002 0.041687C9.8452 0.041687 10.125 0.321509 10.125 0.666687V1.50002C10.125 1.8452 9.8452 2.12502 9.50002 2.12502C9.15484 2.12502 8.87502 1.8452 8.87502 1.50002V0.666687C8.87502 0.321509 9.15484 0.041687 9.50002 0.041687Z" fill="black"/>
<path fill-rule="evenodd" clip-rule="evenodd" d="M4.70835 9.00002C4.70835 6.35366 6.85366 4.20835 9.50002 4.20835C12.1464 4.20835 14.2917 6.35366 14.2917 9.00002C14.2917 11.6464 12.1464 13.7917 9.50002 13.7917C6.85366 13.7917 4.70835 11.6464 4.70835 9.00002ZM9.50002 5.45835C7.54401 5.45835 5.95835 7.04401 5.95835 9.00002C5.95835 10.956 7.54401 12.5417 9.50002 12.5417C11.456 12.5417 13.0417 10.956 13.0417 9.00002C13.0417 7.04401 11.456 5.45835 9.50002 5.45835Z" fill="black"/>
<path d="M4.04942 2.66554C3.80534 2.42146 3.40961 2.42146 3.16553 2.66554C2.92146 2.90962 2.92146 3.30535 3.16553 3.54942L3.75479 4.13868C3.99887 4.38276 4.3946 4.38276 4.63867 4.13868C4.88275 3.8946 4.88275 3.49887 4.63867 3.2548L4.04942 2.66554Z" fill="black"/>
<path d="M18.4584 9.00002C18.4584 9.3452 18.1785 9.62502 17.8334 9.62502H17C16.6548 9.62502 16.375 9.3452 16.375 9.00002C16.375 8.65484 16.6548 8.37502 17 8.37502H17.8334C18.1785 8.37502 18.4584 8.65484 18.4584 9.00002Z" fill="black"/>
<path d="M15.8345 3.54942C16.0786 3.30534 16.0786 2.90961 15.8345 2.66553C15.5904 2.42146 15.1947 2.42146 14.9506 2.66553L14.3614 3.25479C14.1173 3.49887 14.1173 3.8946 14.3614 4.13867C14.6054 4.38275 15.0012 4.38275 15.2452 4.13867L15.8345 3.54942Z" fill="black"/>
<path d="M9.50002 15.875C9.8452 15.875 10.125 16.1548 10.125 16.5V17.3334C10.125 17.6785 9.8452 17.9584 9.50002 17.9584C9.15484 17.9584 8.87502 17.6785 8.87502 17.3334V16.5C8.87502 16.1548 9.15484 15.875 9.50002 15.875Z" fill="black"/>
<path d="M15.2453 13.8614C15.0012 13.6173 14.6055 13.6173 14.3614 13.8614C14.1173 14.1055 14.1173 14.5012 14.3614 14.7453L14.9507 15.3345C15.1947 15.5786 15.5905 15.5786 15.8346 15.3345C16.0786 15.0904 16.0786 14.6947 15.8346 14.4506L15.2453 13.8614Z" fill="black"/>
<path d="M2.62502 9.00002C2.62502 9.3452 2.3452 9.62502 2.00002 9.62502H1.16669C0.821509 9.62502 0.541687 9.3452 0.541687 9.00002C0.541687 8.65484 0.821509 8.37502 1.16669 8.37502H2.00002C2.3452 8.37502 2.62502 8.65484 2.62502 9.00002Z" fill="black"/>
<path d="M4.63862 14.7452C4.88269 14.5012 4.88269 14.1054 4.63862 13.8614C4.39454 13.6173 3.99881 13.6173 3.75473 13.8614L3.16548 14.4506C2.9214 14.6947 2.9214 15.0904 3.16548 15.3345C3.40956 15.5786 3.80528 15.5786 4.04936 15.3345L4.63862 14.7452Z" fill="black"/>
</svg>
