<svg width="23" height="20" viewBox="0 0 23 20" fill="none" xmlns="http://www.w3.org/2000/svg">
<g clip-path="url(#clip0_1_623)">
<path d="M23 2.99236C22.1375 3.43082 21.275 3.57697 20.2688 3.72313C21.275 3.13851 21.9937 2.26159 22.2812 1.09236C21.4188 1.67697 20.4125 1.96928 19.2625 2.26159C18.4 1.38466 17.1063 0.800049 15.8125 0.800049C13.3687 0.800049 11.2125 2.99236 11.2125 5.62313C11.2125 6.06159 11.2125 6.3539 11.3562 6.6462C7.475 6.50005 3.88125 4.60005 1.58125 1.67697C1.15 2.40774 1.00625 3.13851 1.00625 4.16159C1.00625 5.76928 1.86875 7.23082 3.1625 8.10774C2.44375 8.10774 1.725 7.81543 1.00625 7.52313C1.00625 9.86159 2.5875 11.7615 4.74375 12.2C4.3125 12.3462 3.88125 12.3462 3.45 12.3462C3.1625 12.3462 2.875 12.3462 2.5875 12.2C3.1625 14.1 4.8875 15.5615 7.04375 15.5615C5.4625 16.8769 3.45 17.6077 1.15 17.6077C0.71875 17.6077 0.43125 17.6077 0 17.6077C2.15625 18.9231 4.6 19.8 7.1875 19.8C15.8125 19.8 20.5562 12.4923 20.5562 6.20774C20.5562 6.06159 20.5562 5.76928 20.5562 5.62313C21.5625 4.89236 22.425 4.01543 23 2.99236Z" fill="#ABB7BD"/>
</g>
<defs>
<clipPath id="clip0_1_623">
<rect width="23" height="19" fill="white" transform="translate(0 0.800049)"/>
</clipPath>
</defs>
</svg>
