<svg width="24" height="25" viewBox="0 0 24 25" fill="none" xmlns="http://www.w3.org/2000/svg">
<g clip-path="url(#clip0_1_641)">
<path d="M24 12.5998C24 15.7824 22.7357 18.8347 20.4852 21.0852C18.2348 23.3357 15.1824 24.6 11.9998 24.6C8.8173 24.5999 5.76515 23.3356 3.51478 21.0852C1.26441 18.8348 0.00010948 15.7827 0 12.6002C-1.88315e-09 9.41763 1.26425 6.36538 3.51464 4.1149C5.765 1.86444 8.8172 0.600085 11.9998 0.599976C15.1824 0.599976 18.2346 1.86422 20.4851 4.11461C22.7355 6.36498 23.9999 9.41718 24 12.5998Z" fill="#111C23"/>
<path d="M13.6412 20.2034C13.5496 20.2035 13.4609 20.1713 13.3906 20.1126C13.3467 20.0759 13.3113 20.03 13.2871 19.9781C13.2628 19.9263 13.2503 19.8697 13.2503 19.8125V16.5851C13.2503 16.4935 13.2825 16.4048 13.3412 16.3345C13.3999 16.2642 13.4813 16.2167 13.5714 16.2003C14.4582 16.0379 15.2756 15.6126 15.9175 14.9796C16.0442 14.8532 16.162 14.7182 16.27 14.5755C15.148 13.4576 13.8567 13.9393 12.3615 14.4966L11.9123 14.6617C10.3849 15.2314 8.65107 15.8771 7.17357 14.3992C6.69782 13.913 6.39917 13.281 6.32547 12.6047C6.25182 11.9285 6.40742 11.2471 6.76737 10.6698C5.96317 9.41853 6.23852 7.73092 7.53027 6.43882C8.28487 5.69387 9.24612 5.19314 10.2891 5.00181C10.3455 4.99154 10.4034 4.99379 10.4587 5.00842C10.5141 5.02305 10.5656 5.04968 10.6095 5.08644C10.6534 5.12311 10.6888 5.16901 10.713 5.22087C10.7373 5.27273 10.7499 5.3293 10.7498 5.38656V8.61768C10.7498 8.70918 10.7177 8.79782 10.6591 8.86807C10.6005 8.93837 10.5191 8.98592 10.4291 9.00242C9.54232 9.16487 8.72492 9.59018 8.08302 10.2231C7.95637 10.3496 7.83857 10.4846 7.73047 10.6273C8.85252 11.7448 10.1438 11.2634 11.639 10.7057L12.0882 10.5406C13.6156 9.97048 15.3494 9.32482 16.8269 10.8031C17.1289 11.1026 17.361 11.4652 17.5066 11.8648C17.6522 12.2645 17.7077 12.6913 17.6691 13.1149C17.6239 13.6114 17.4748 14.0929 17.2315 14.528C18.0373 15.7776 17.7632 17.4673 16.4686 18.7602C15.7143 19.505 14.7535 20.0057 13.711 20.1972C13.6878 20.2014 13.6648 20.2035 13.6412 20.2034ZM14.0317 16.9009V19.3175C14.7426 19.1101 15.3905 18.7286 15.9167 18.2074C16.8249 17.2992 17.1118 16.1586 16.7287 15.2525C16.6461 15.3485 16.5598 15.4422 16.4698 15.5336C15.7955 16.2004 14.9536 16.6727 14.033 16.9005L14.0317 16.9009ZM7.32467 11.3179C7.12282 11.7296 7.05302 12.1936 7.12482 12.6465C7.19667 13.0994 7.40657 13.519 7.72592 13.8481C8.84877 14.9709 10.1413 14.4888 11.6382 13.9306L12.0874 13.7655C13.564 13.2152 15.231 12.5939 16.675 13.8852C16.7909 13.6205 16.863 13.3388 16.8884 13.0509C16.9172 12.7403 16.877 12.4272 16.7705 12.1339C16.6641 11.8406 16.4942 11.5746 16.2729 11.3547C15.1501 10.2318 13.8575 10.714 12.3606 11.2721L11.9115 11.4372C10.4353 11.9875 8.76827 12.6092 7.32427 11.3183L7.32467 11.3179ZM9.96627 5.88442C9.25542 6.09193 8.60757 6.47342 8.08137 6.99447C7.17317 7.90267 6.88627 9.04288 7.26892 9.94863C7.35152 9.85337 7.43807 9.75982 7.52862 9.66787C8.20297 9.00062 9.04527 8.52818 9.96627 8.30063V5.88442Z" fill="#00FFB9"/>
</g>
<defs>
<clipPath id="clip0_1_641">
<rect width="24" height="24" fill="white" transform="translate(0 0.599976)"/>
</clipPath>
</defs>
</svg>
