<svg width="25" height="25" viewBox="0 0 25 25" fill="none" xmlns="http://www.w3.org/2000/svg">
<g clip-path="url(#clip0_1_712)">
<path d="M24.8 12.6C24.8 5.97256 19.4275 0.599976 12.8 0.599976C6.17263 0.599976 0.800049 5.97256 0.800049 12.6C0.800049 19.2274 6.17263 24.6 12.8 24.6C19.4275 24.6 24.8 19.2274 24.8 12.6Z" fill="#31C1BF"/>
<path fill-rule="evenodd" clip-rule="evenodd" d="M16.356 13.7052C13.7776 13.7052 11.688 11.6162 11.688 9.04128C11.688 7.69309 10.6004 6.59998 9.24407 6.59998C7.89984 6.59998 6.80005 7.69309 6.80005 9.04128C6.80005 10.3895 7.8876 11.4826 9.24407 11.4826H9.25622C11.8224 11.4826 13.8998 13.5717 13.9121 16.1466V16.1587C13.9121 17.5068 14.9996 18.6 16.356 18.6C17.7125 18.6 18.8 17.5068 18.8 16.1587C18.7878 14.7984 17.7002 13.7052 16.356 13.7052Z" fill="white"/>
<path fill-rule="evenodd" clip-rule="evenodd" d="M9.25625 13.7052C7.91204 13.7052 6.81226 14.7983 6.81226 16.1465C6.81226 17.4947 7.89981 18.5879 9.25625 18.5879C10.6126 18.5879 11.7003 17.4947 11.7003 16.1465C11.688 14.7983 10.6005 13.7052 9.25625 13.7052Z" fill="white"/>
<path fill-rule="evenodd" clip-rule="evenodd" d="M16.3561 6.59998C17.7058 6.59998 18.8001 7.69296 18.8001 9.04123C18.8001 10.3896 17.7058 11.4826 16.3561 11.4826C15.0063 11.4826 13.9121 10.3896 13.9121 9.04123C13.9121 7.69296 15.0063 6.59998 16.3561 6.59998Z" fill="white"/>
<path d="M18.8 24.6C22.1138 24.6 24.8 21.9137 24.8 18.6C24.8 15.2863 22.1138 12.6 18.8 12.6C15.4863 12.6 12.8 15.2863 12.8 18.6C12.8 21.9137 15.4863 24.6 18.8 24.6Z" fill="#1B2022"/>
<path d="M18.6035 17.4622C18.6767 17.3868 18.795 17.3824 18.8774 17.4478C18.9677 17.5196 18.984 17.6505 18.9149 17.743C18.1853 18.7197 17.687 19.5403 17.42 20.205C17.324 20.439 17.186 20.556 17.006 20.556C16.892 20.556 16.79 20.496 16.7 20.376C16.616 20.256 16.559 20.148 16.529 20.052C16.505 19.95 16.463 19.74 16.403 19.422C16.343 19.104 16.277 18.774 16.205 18.432C16.133 18.084 16.073 17.826 16.025 17.658C15.983 17.484 15.953 17.37 15.935 17.316C15.923 17.262 15.899 17.217 15.863 17.181C15.8339 17.1469 15.8577 17.1053 15.9023 17.1094L16.2374 17.1403C16.3281 17.1487 16.407 17.2068 16.4396 17.2918C16.5881 17.6791 16.7079 18.0952 16.799 18.54C16.823 18.642 16.865 18.849 16.925 19.161C16.985 19.467 17.033 19.707 17.069 19.881C17.399 19.245 17.687 18.729 17.933 18.333C18.1458 17.9935 18.3693 17.7033 18.6035 17.4622Z" fill="white"/>
<path d="M21.6354 19.5553C21.6922 19.5193 21.7657 19.522 21.8186 19.5634C21.8848 19.6151 21.8986 19.7103 21.8443 19.7743C21.6693 19.9807 21.4452 20.1573 21.172 20.304C20.848 20.472 20.533 20.556 20.227 20.556C19.921 20.556 19.675 20.466 19.489 20.286C19.303 20.106 19.21 19.869 19.21 19.575C19.21 19.023 19.501 18.48 20.083 17.946C20.671 17.412 21.265 17.145 21.865 17.145C22.261 17.145 22.459 17.301 22.459 17.613C22.459 17.937 22.249 18.264 21.829 18.594C21.415 18.924 20.83 19.224 20.074 19.494C20.128 19.632 20.212 19.74 20.326 19.818C20.44 19.896 20.557 19.935 20.677 19.935C20.9164 19.935 21.2358 19.8084 21.6354 19.5553ZM20.029 19.224C20.515 19.056 20.932 18.846 21.28 18.594C21.628 18.342 21.802 18.111 21.802 17.901C21.802 17.823 21.772 17.754 21.712 17.694C21.652 17.634 21.583 17.604 21.505 17.604C21.223 17.604 20.917 17.781 20.587 18.135C20.263 18.483 20.077 18.846 20.029 19.224Z" fill="white"/>
</g>
<defs>
<clipPath id="clip0_1_712">
<rect width="24" height="24" fill="white" transform="translate(0.800049 0.599976)"/>
</clipPath>
</defs>
</svg>
