<svg width="25" height="25" viewBox="0 0 25 25" fill="none" xmlns="http://www.w3.org/2000/svg">
<g clip-path="url(#clip0_1_735)">
<path d="M24.98 12.6C24.98 5.97256 19.6074 0.599976 12.98 0.599976C6.35256 0.599976 0.97998 5.97256 0.97998 12.6C0.97998 19.2274 6.35256 24.6 12.98 24.6C19.6074 24.6 24.98 19.2274 24.98 12.6Z" fill="#1B2022"/>
<path fill-rule="evenodd" clip-rule="evenodd" d="M16.536 13.7052C13.9576 13.7052 11.8679 11.6161 11.8679 9.04125C11.8679 7.69309 10.7804 6.59998 9.42397 6.59998C8.07977 6.59998 6.97998 7.69309 6.97998 9.04125C6.97998 10.3895 8.06753 11.4825 9.42397 11.4825H9.43616C12.0024 11.4825 14.0798 13.5716 14.092 16.1465V16.1586C14.092 17.5068 15.1795 18.5999 16.536 18.5999C17.8924 18.5999 18.98 17.5068 18.98 16.1586C18.9677 14.7983 17.8802 13.7052 16.536 13.7052Z" fill="white"/>
<path fill-rule="evenodd" clip-rule="evenodd" d="M9.43618 13.7053C8.09198 13.7053 6.99219 14.7984 6.99219 16.1466C6.99219 17.4948 8.07974 18.5879 9.43618 18.5879C10.7926 18.5879 11.8802 17.4948 11.8802 16.1466C11.868 14.7984 10.7804 13.7053 9.43618 13.7053Z" fill="white"/>
<path fill-rule="evenodd" clip-rule="evenodd" d="M16.536 6.59998C17.8857 6.59998 18.9799 7.69296 18.9799 9.04125C18.9799 10.3895 17.8857 11.4826 16.536 11.4826C15.1862 11.4826 14.092 10.3895 14.092 9.04125C14.092 7.69296 15.1862 6.59998 16.536 6.59998Z" fill="white"/>
<path d="M18.98 24.6C22.2937 24.6 24.98 21.9137 24.98 18.6C24.98 15.2863 22.2937 12.6 18.98 12.6C15.6663 12.6 12.98 15.2863 12.98 18.6C12.98 21.9137 15.6663 24.6 18.98 24.6Z" fill="#2783B8"/>
<path d="M17.7729 21.2667C17.616 21.2667 17.4794 21.1924 17.363 21.0437C17.2516 20.8951 17.1529 20.7029 17.0669 20.4672C16.9859 20.2314 16.8846 19.8932 16.7632 19.4524C16.6265 18.9809 16.5025 18.5786 16.3911 18.2454C16.2848 17.9123 16.1558 17.5843 16.0039 17.2614C16.3228 17.1538 16.6695 17.1 17.0441 17.1C17.0694 17.3409 17.1251 17.6663 17.2111 18.0763C17.3022 18.4812 17.3959 18.8553 17.492 19.1987C17.6641 19.7625 17.8058 20.1673 17.9172 20.4133C18.3171 19.2192 18.5777 18.3531 18.6992 17.8149L18.4638 17.2614C18.7777 17.1538 19.1218 17.1 19.4964 17.1C19.5318 17.3409 19.5926 17.6638 19.6786 18.0686C19.7647 18.4735 19.8532 18.8502 19.9443 19.1987C20.1063 19.7266 20.2506 20.1315 20.3771 20.4133C20.6808 19.4755 20.8984 18.7682 21.03 18.2916C21.1667 17.8149 21.235 17.4869 21.235 17.3076C21.235 17.2666 21.23 17.2256 21.2199 17.1846C21.4375 17.1282 21.683 17.1 21.9563 17.1C21.7842 17.5459 21.5716 18.1558 21.3186 18.9296C21.0655 19.6984 20.8478 20.3852 20.6656 20.9899L20.2329 21.2667C20.0759 21.2667 19.9393 21.1924 19.8229 21.0437C19.7115 20.8951 19.6128 20.7029 19.5268 20.4672C19.4458 20.2314 19.3445 19.8957 19.2231 19.4601C19.1218 19.1116 19.0383 18.8271 18.9725 18.6068C18.6233 19.6625 18.3702 20.4569 18.2133 20.9899L17.7729 21.2667Z" fill="white"/>
</g>
<defs>
<clipPath id="clip0_1_735">
<rect width="24" height="24" fill="white" transform="translate(0.97998 0.599976)"/>
</clipPath>
</defs>
</svg>
